<?xml version="1.0" encoding="utf-8"?>
<!-- Generator: Adobe Illustrator 19.2.0, SVG Export Plug-In . SVG Version: 6.00 Build 0)  -->
<svg version="1.1" id="Слой_1" xmlns="http://www.w3.org/2000/svg" xmlns:xlink="http://www.w3.org/1999/xlink" x="0px" y="0px"
	 viewBox="0 0 560 30" style="enable-background:new 0 0 560 30;" xml:space="preserve">
<style type="text/css">
	.st0{fill:#FFFFFF;}
</style>
<g>
	<path class="st0" d="M23.5,0l-3.4,0c-3.8,0-6.3,2.9-6.3,7.4v3.4h-3.4c-0.3,0-0.5,0.3-0.5,0.6v4.9c0,0.3,0.2,0.6,0.5,0.6h3.4v12.4
		c0,0.3,0.2,0.6,0.5,0.6h4.4c0.3,0,0.5-0.3,0.5-0.6V16.9h4c0.3,0,0.5-0.3,0.5-0.6l0-4.9c0-0.2-0.1-0.3-0.2-0.4s-0.2-0.2-0.4-0.2h-4
		V7.9c0-1.4,0.3-2.1,1.9-2.1l2.3,0c0.3,0,0.5-0.3,0.5-0.6V0.6C24,0.3,23.8,0,23.5,0z"/>
</g>
<g>
	<g>
		<path class="st0" d="M66.7,7.9c-1.1,0.4-2.3,0.5-3.5,0.4c1.4-0.7,2.6-1.9,3.4-3.5c-1.3,0.6-2.6,1-3.9,1c-0.7-1.7-1.9-2.9-3.5-3.2
			c-3.1-0.7-6.3,2.1-7.2,6.1c-0.1,0.6-0.2,1.2-0.2,1.7c-4.6-1.3-8-5.2-9.8-10.3c-0.7,1-1.3,2.2-1.6,3.5c-0.6,2.6-0.1,5,1.1,6.7
			c-0.9-0.2-1.7-0.8-2.3-1.5L39,9c-0.8,3.6,0.5,7,2.8,8.3c-0.5,0.1-1,0-1.5-0.1c-0.4-0.1-0.7-0.2-1-0.4c0.1,3.1,1.6,5.7,4.1,6.3
			c-2.3,1.6-5,2.2-7.6,1.6c-0.4-0.1-0.9-0.2-1.3-0.4c2,2.7,4.6,4.5,7.8,5.2c10.2,2.3,18.4-7.7,20.6-17.5l0.2-1
			C64.4,10.3,65.6,9.2,66.7,7.9z"/>
	</g>
</g>
<g>
	<g>
		<path class="st0" d="M100.4,0h-7.6c-3.4,0-5.7,0.7-7.9,2.3c-1.7,1.3-2.7,3.3-2.7,5.2c0,3,2.4,6.1,6.9,6.1c0.4,0,0.9,0,1.3-0.1
			l-0.1,0.1c-0.2,0.4-0.4,0.8-0.4,1.4c0,1.2,0.6,1.9,1.2,2.6l0.1,0.1l-0.1,0c-1.8,0.1-5.3,0.3-7.8,1.8c-3,1.7-3.2,4.1-3.2,4.8
			c0,2.8,2.8,5.6,8.9,5.6c7.2,0,10.9-3.7,10.9-7.4c0-2.7-1.7-4.1-3.5-5.5L95.1,16c-0.5-0.4-1.1-0.8-1.1-1.7c0-0.8,0.6-1.4,1.1-1.9
			l0.1-0.1c1.6-1.2,3.5-2.6,3.5-5.6c0-3-2-4.5-2.9-5.3h2.5c0,0,0.1,0,0.1,0l2.2-1.3c0.1,0,0.1-0.1,0.1-0.2C100.6,0,100.5,0,100.4,0z
			 M91.2,28.4c-4.4,0-7.3-1.9-7.3-4.8c0-1.9,1.2-3.2,3.6-4c1.9-0.6,4.3-0.6,4.4-0.6c0.4,0,0.6,0,1,0c3.1,2,4.5,3.1,4.5,5.2
			C97.3,26.7,95,28.4,91.2,28.4z M91.1,12.6c-3.7,0-5.2-4.5-5.2-7c0-1.2,0.3-2.2,0.9-2.9c0.7-0.8,1.8-1.3,2.9-1.3
			c3.4,0,5.2,4.3,5.2,7.2c0,0.5,0,1.9-1,2.9C93.3,12.2,92.1,12.6,91.1,12.6z"/>
		<path class="st0" d="M111.1,14h-4v-3.8c0-0.1-0.1-0.2-0.2-0.2h-1.7c-0.1,0-0.2,0.1-0.2,0.2V14h-4c-0.1,0-0.2,0.1-0.2,0.2v1.6
			c0,0.1,0.1,0.2,0.2,0.2h4v3.8c0,0.1,0.1,0.2,0.2,0.2h1.7c0.1,0,0.2-0.1,0.2-0.2V16h4c0.1,0,0.2-0.1,0.2-0.2v-1.6
			C111.3,14.1,111.2,14,111.1,14z"/>
	</g>
</g>
<g>
	<path id="LinkedIn" class="st0" d="M153.3,18.4v11.5h-6V19.1c0-2.7-0.9-4.5-3-4.5c-1.7,0-2.6,1.2-3.1,2.4c-0.2,0.4-0.2,1-0.2,1.6
		v11.2h-6c0,0,0.1-18.2,0-20.1h6v2.8c0,0,0,0,0,0.1h0v-0.1c0.8-1.4,2.2-3.3,5.4-3.3C150.3,9.3,153.3,12.2,153.3,18.4z M128.6,0.1
		c-2.1,0-3.4,1.5-3.4,3.5c0,1.9,1.3,3.5,3.3,3.5h0c2.1,0,3.4-1.5,3.4-3.5C132,1.6,130.7,0.1,128.6,0.1z M125.6,29.9h6V9.8h-6V29.9z"
		/>
</g>
</svg>
